<?xml version="1.0" encoding="UTF-8" standalone="no"?>
<svg id="Layer_2" viewBox="0 0 1920 867.5" xmlns="http://www.w3.org/2000/svg" data-name="Layer 2">
 <title>Untitled-1</title>
 <path d="m1920 0h-1920v538.07l0.5 0.43c104 86.61 266.94 87.53 365 88h33c92.32-0.19 138.49-0.29 186-3 15.22-0.87 60.15-5.91 150-16 86-9.66 91.15-10.73 124-14 68.55-6.82 131.51-10.61 171-12 120.89 0 207.93 1.93 283 15 135.28 23.56 270 90 377 142.72a2598 2598 0 0 1 230 128.28c0.17-0.65 0.33-1.31 0.5-2z" fill="#7b1ec5"/>
</svg>
